<svg width="38" height="24" viewBox="0 0 38 24" fill="none" xmlns="http://www.w3.org/2000/svg">
<g id="Frame">
<path id="Vector" opacity="0.07" d="M35 0H3C1.3 0 0 1.3 0 3V21C0 22.7 1.4 24 3 24H35C36.7 24 38 22.7 38 21V3C38 1.3 36.6 0 35 0Z" fill="black"/>
<path id="Vector_2" d="M35 1C36.1 1 37 1.9 37 3V21C37 22.1 36.1 23 35 23H3C1.9 23 1 22.1 1 21V3C1 1.9 1.9 1 3 1H35Z" fill="white"/>
<path id="Vector_3" d="M25.2603 16.23C23.5633 17.71 21.1033 18.5 18.9853 18.5C16.0153 18.5 13.3413 17.2 11.3193 15.037C11.1593 14.867 11.3013 14.635 11.4923 14.767C13.6753 16.271 16.3743 17.175 19.1623 17.175C21.0423 17.175 23.1123 16.715 25.0123 15.759C25.3003 15.614 25.5423 15.982 25.2603 16.23ZM25.9663 15.273C25.7503 14.945 24.5323 15.118 23.9863 15.195C23.8193 15.219 23.7933 15.047 23.9433 14.925C24.9133 14.115 26.5053 14.349 26.6913 14.62C26.8783 14.892 26.6443 16.78 25.7313 17.683C25.5913 17.821 25.4593 17.747 25.5213 17.563C25.7263 16.959 26.1843 15.603 25.9663 15.273Z" fill="#FF9900"/>
<path id="Vector_4" d="M21.814 15.2909C21.24 14.7929 21.138 14.5609 20.821 14.0859C19.874 15.0979 19.203 15.4009 17.971 15.4009C16.518 15.4009 15.384 14.4629 15.384 12.5829C15.384 11.1159 16.146 10.1159 17.228 9.62789C18.168 9.19489 19.478 9.11789 20.478 8.99989V8.76489C20.478 8.33489 20.511 7.82489 20.27 7.45489C20.058 7.12189 19.654 6.98489 19.3 6.98489C18.64 6.98489 18.05 7.33789 17.908 8.06989C17.878 8.23289 17.764 8.39289 17.608 8.39989L15.931 8.21289C15.791 8.17989 15.635 8.05989 15.674 7.83289C16.06 5.70789 17.897 5.06689 19.541 5.06689C20.381 5.06689 21.481 5.30089 22.145 5.96689C22.987 6.78689 22.907 7.88489 22.907 9.07689V11.8949C22.907 12.7419 23.242 13.1149 23.557 13.5709C23.67 13.7349 23.695 13.9309 23.554 14.0529C23.201 14.3609 22.574 14.9329 22.228 15.2529C22.1709 15.3004 22.1008 15.3294 22.0269 15.3362C21.953 15.343 21.8788 15.3272 21.814 15.2909ZM20.155 12.7579C20.495 12.1319 20.478 11.5439 20.478 10.8399V10.4479C19.228 10.4479 17.908 10.7279 17.908 12.2679C17.908 13.0499 18.294 13.5779 18.958 13.5779C19.445 13.5779 19.88 13.2659 20.155 12.7579Z" fill="#221F1F"/>
</g>
</svg>
