<svg width="25" height="24" viewBox="0 0 25 24" fill="none" xmlns="http://www.w3.org/2000/svg">
<g id="Frame">
<path id="Vector" d="M19.5897 17.798H21.4577C21.6829 17.7981 21.906 17.7539 22.1142 17.6677C22.3223 17.5816 22.5114 17.4553 22.6707 17.296C22.83 17.1367 22.9563 16.9476 23.0424 16.7395C23.1286 16.5313 23.1728 16.3083 23.1727 16.083V11.25C23.1727 10.82 23.088 10.3942 22.9234 9.99688C22.7588 9.59959 22.5175 9.23862 22.2134 8.93459C21.9093 8.63056 21.5482 8.38942 21.1509 8.22495C20.7536 8.06047 20.3277 7.97588 19.8977 7.97601H14.9847L14.8877 15.845" stroke="#7B7B7B" stroke-width="1.2" stroke-linecap="round" stroke-linejoin="round"/>
<path id="Vector_2" d="M9.30022 18.175C10.8652 18.175 12.3942 18.015 13.8722 17.854M3.93222 17.767C3.53178 17.7236 3.15788 17.5457 2.87162 17.2624C2.58536 16.979 2.40366 16.607 2.35622 16.207C2.16722 14.613 1.94922 12.951 1.94922 11.247C1.94922 9.54199 2.16522 7.88099 2.35422 6.28699C2.40222 5.88707 2.58423 5.51517 2.87059 5.2319C3.15695 4.94863 3.53079 4.77066 3.93122 4.72699C5.65622 4.54099 7.45422 4.31799 9.30122 4.31799C11.1482 4.31799 12.9452 4.54099 14.6692 4.72599C15.0698 4.76945 15.4439 4.94732 15.7305 5.23061C16.017 5.51391 16.1992 5.88591 16.2472 6.28599C16.3132 6.84999 16.3832 7.42099 16.4462 7.99999" stroke="#7B7B7B" stroke-width="1.2"/>
<path id="Vector_3" d="M16.6504 21.069C15.8822 21.069 15.1455 20.7638 14.6023 20.2206C14.0591 19.6774 13.7539 18.9407 13.7539 18.1725C13.7539 17.4043 14.0591 16.6676 14.6023 16.1244C15.1455 15.5812 15.8822 15.276 16.6504 15.276C17.4187 15.276 18.1556 15.5812 18.6989 16.1245C19.2422 16.6678 19.5474 17.4047 19.5474 18.173C19.5474 18.9413 19.2422 19.6782 18.6989 20.2215C18.1556 20.7648 17.4187 21.069 16.6504 21.069ZM6.42139 21.069C5.65332 21.069 4.91671 20.7639 4.37361 20.2208C3.8305 19.6777 3.52539 18.9411 3.52539 18.173C3.52539 17.4049 3.8305 16.6683 4.37361 16.1252C4.91671 15.5821 5.65332 15.277 6.42139 15.277C7.18959 15.277 7.92633 15.5822 8.46953 16.1254C9.01272 16.6686 9.31789 17.4053 9.31789 18.1735C9.31789 18.9417 9.01272 19.6784 8.46953 20.2216C7.92633 20.7648 7.18959 21.069 6.42139 21.069Z" stroke="#7B7B7B" stroke-width="1.2" stroke-linecap="round" stroke-linejoin="round"/>
</g>
</svg>
