<svg width="22" height="23" viewBox="0 0 22 23" fill="none" xmlns="http://www.w3.org/2000/svg">
<g id="Frame">
<path id="Vector" d="M10.9999 7.5H3.57688C3.27193 7.50004 2.97103 7.56981 2.69718 7.70399C2.42333 7.83816 2.18379 8.03318 1.99688 8.27414C1.80996 8.51509 1.68062 8.79559 1.61875 9.0942C1.55687 9.39281 1.5641 9.70161 1.63988 9.997L3.69088 17.997C3.80127 18.4273 4.05177 18.8086 4.40287 19.0807C4.75396 19.3529 5.18567 19.5004 5.62988 19.5H16.3699C16.8138 19.4999 17.245 19.3522 17.5957 19.0801C17.9464 18.808 18.1966 18.427 18.3069 17.997L20.3589 9.997C20.4347 9.70161 20.4419 9.39281 20.38 9.0942C20.3181 8.79559 20.1888 8.51509 20.0019 8.27414C19.815 8.03318 19.5754 7.83816 19.3016 7.70399C19.0277 7.56981 18.7268 7.50004 18.4219 7.5H10.9999ZM10.9999 7.5V1.5" stroke="#333333" stroke-width="1.2" stroke-linecap="round" stroke-linejoin="round"/>
</g>
</svg>
