<svg width="38" height="24" viewBox="0 0 38 24" fill="none" xmlns="http://www.w3.org/2000/svg">
<g id="Frame">
<path id="Vector" d="M34.3874 0H3.61312C3.48493 0 3.35651 0 3.22854 0.00067947C3.1205 0.00158543 3.01269 0.00271788 2.90466 0.00566225C2.66934 0.012004 2.43197 0.0260463 2.1996 0.0677205C1.96655 0.107648 1.74075 0.182074 1.52964 0.288548C1.10523 0.504411 0.76027 0.849374 0.544408 1.27378C0.437744 1.48497 0.363309 1.71095 0.32358 1.94419C0.281453 2.17679 0.267637 2.41393 0.261295 2.64903C0.258535 2.75697 0.256874 2.86493 0.256312 2.97291C0.255859 3.10065 0.255859 3.22884 0.255859 3.35726V20.6425C0.255859 20.7709 0.255859 20.8989 0.256312 21.0273C0.256992 21.1351 0.258351 21.2432 0.261295 21.3512C0.267637 21.5858 0.281679 21.8232 0.32358 22.0556C0.363227 22.2888 0.437586 22.5148 0.544181 22.726C0.651352 22.9369 0.791243 23.1296 0.958657 23.2967C1.12579 23.4642 1.31843 23.6041 1.52941 23.7112C1.7439 23.8206 1.96359 23.8902 2.19982 23.9325C2.43197 23.974 2.66934 23.988 2.90466 23.9943C3.01269 23.9968 3.1205 23.9982 3.22854 23.9989C3.35651 23.9998 3.48493 23.9998 3.61312 23.9998H34.3874C34.5154 23.9998 34.6438 23.9998 34.7718 23.9989C34.8796 23.9984 34.9874 23.9968 35.0959 23.9943C35.3308 23.988 35.5681 23.974 35.801 23.9325C36.0341 23.8925 36.2599 23.818 36.4709 23.7112C36.8951 23.4951 37.24 23.1502 37.4561 22.726C37.5655 22.5115 37.6348 22.2918 37.6767 22.0556C37.7189 21.8232 37.7325 21.5858 37.7388 21.3512C37.7417 21.2432 37.7433 21.1351 37.7438 21.0273C37.7447 20.8989 37.7447 20.7709 37.7447 20.6425V3.35749C37.7447 3.22907 37.7447 3.10087 37.7438 2.97268C37.7433 2.86478 37.7417 2.75689 37.7388 2.64903C37.7325 2.41393 37.7189 2.17679 37.6767 1.94419C37.6373 1.71091 37.5629 1.4849 37.4561 1.27378C37.2402 0.849448 36.8952 0.504513 36.4709 0.288548C36.2598 0.182184 36.034 0.107836 35.801 0.067947C35.5681 0.0260463 35.3308 0.0122305 35.0959 0.00588874C34.9879 0.00314533 34.8798 0.00148432 34.7718 0.000905959C34.6438 0 34.5154 0 34.3874 0Z" fill="black"/>
<path id="Vector_2" d="M34.3871 0.800049L34.7658 0.800728C34.8682 0.801408 34.9708 0.80254 35.0739 0.805258C35.2535 0.810241 35.4632 0.81998 35.6589 0.855086C35.8288 0.885662 35.9714 0.932092 36.1082 1.00185C36.382 1.14104 36.6044 1.36369 36.7433 1.63761C36.8126 1.7735 36.8588 1.91529 36.8894 2.08674C36.9243 2.28016 36.934 2.49057 36.9388 2.67108C36.9417 2.773 36.9431 2.87492 36.9433 2.97911C36.9444 3.10526 36.9444 3.23119 36.9444 3.35757V20.6428C36.9444 20.7692 36.9444 20.8951 36.9435 21.0238C36.9431 21.1257 36.9417 21.2276 36.939 21.3295C36.934 21.5098 36.9243 21.7202 36.889 21.9159C36.8633 22.0716 36.814 22.2224 36.7429 22.3632C36.6037 22.6373 36.3809 22.8599 36.1069 22.999C35.971 23.0683 35.8288 23.1147 35.6605 23.1451C35.4609 23.1806 35.2421 23.1904 35.0775 23.1949C34.974 23.1972 34.8709 23.1988 34.7652 23.1992C34.6395 23.2001 34.5131 23.2001 34.3871 23.2001H3.60786C3.48329 23.2001 3.35872 23.2001 3.23188 23.1992C3.12995 23.1988 3.02803 23.1974 2.92612 23.1951C2.75761 23.1906 2.53882 23.1806 2.34087 23.1453C2.18436 23.1192 2.03271 23.0696 1.89106 22.9981C1.7552 22.9291 1.63119 22.8389 1.5237 22.7308C1.41587 22.6232 1.32581 22.4991 1.25689 22.3632C1.18572 22.2216 1.13639 22.07 1.11058 21.9137C1.07525 21.7182 1.06528 21.5087 1.06075 21.3298C1.05819 21.2275 1.05668 21.1252 1.05622 21.0229L1.05554 20.7223V3.2783L1.05599 2.9782C1.05646 2.87574 1.05797 2.77329 1.06052 2.67086C1.06551 2.49148 1.07525 2.28197 1.11081 2.08493C1.13666 1.92884 1.18599 1.77757 1.25712 1.63625C1.32597 1.50081 1.41566 1.37715 1.52438 1.26866C1.63213 1.16074 1.75627 1.07054 1.8922 1.0014C2.03349 0.930411 2.18467 0.881088 2.34065 0.855086C2.53656 0.81998 2.74652 0.810241 2.92635 0.805258C3.02872 0.80254 3.13132 0.801408 3.23302 0.800728L3.61284 0.800049H34.3871Z" fill="white"/>
<g id="Group">
<g id="Group_2">
<path id="Vector_3" d="M10.1097 8.10147C10.4277 7.70398 10.6433 7.17014 10.5865 6.62476C10.1212 6.64786 9.55366 6.93165 9.2248 7.32959C8.92968 7.67023 8.66854 8.22627 8.73649 8.74878C9.25877 8.79408 9.78061 8.48786 10.1097 8.10147Z" fill="black"/>
<path id="Vector_4" d="M10.5806 8.85094C9.82183 8.80564 9.17724 9.28127 8.81509 9.28127C8.4527 9.28127 7.89803 8.87359 7.29806 8.88469C6.51735 8.89601 5.79303 9.33767 5.39667 10.0398C4.58176 11.444 5.18151 13.5277 5.97422 14.6715C6.35903 15.2377 6.82288 15.8606 7.43395 15.8382C8.0115 15.8155 8.23776 15.4644 8.93943 15.4644C9.64087 15.4644 9.84471 15.8382 10.456 15.8268C11.0897 15.8155 11.4861 15.2606 11.8709 14.6944C12.3125 14.0489 12.4931 13.426 12.5044 13.3921C12.4931 13.3807 11.2822 12.9162 11.2709 11.5233C11.2596 10.3569 12.2217 9.80197 12.267 9.76777C11.7237 8.96419 10.8748 8.87359 10.5803 8.85094" fill="black"/>
</g>
<g id="Group_3">
<path id="Vector_5" d="M18.1422 7.27246C19.7906 7.27246 20.9386 8.40876 20.9386 10.063C20.9386 11.7232 19.767 12.8654 18.101 12.8654H16.2759V15.7681H14.9573V7.27246H18.1422ZM16.2759 11.7585H17.7889C18.9372 11.7585 19.5904 11.1405 19.5904 10.0689C19.5904 8.99763 18.9369 8.38521 17.7947 8.38521H16.2759V11.7585Z" fill="black"/>
<path id="Vector_6" d="M21.2657 14.0075C21.2657 12.9183 22.0958 12.2944 23.6264 12.2002L25.2689 12.1V11.6289C25.2689 10.9404 24.8157 10.5635 24.0092 10.5635C23.3437 10.5635 22.8609 10.9049 22.7612 11.4287H21.5717C21.6072 10.328 22.6432 9.52734 24.0445 9.52734C25.5516 9.52734 26.5347 10.3162 26.5347 11.5408V15.7678H25.3162V14.7493H25.2868C24.9394 15.4145 24.1738 15.8324 23.3437 15.8324C22.1193 15.8324 21.2657 15.1026 21.2657 14.0075ZM25.2689 13.4601V12.9831L23.8031 13.0773C22.9786 13.1303 22.5492 13.4363 22.5492 13.972C22.5492 14.4902 22.9965 14.8258 23.6971 14.8258C24.5917 14.8258 25.2689 14.2546 25.2689 13.4601Z" fill="black"/>
<path id="Vector_7" d="M27.6556 18.0403V17.022C27.7381 17.0336 27.9381 17.0453 28.0441 17.0453C28.6268 17.0453 28.9566 16.7985 29.1568 16.1622L29.2746 15.7856L27.0432 9.604H28.4207L29.9751 14.6198H30.0046L31.5587 9.604H32.9011L30.5873 16.0975C30.0573 17.5871 29.451 18.0759 28.1677 18.0759C28.0676 18.0759 27.7437 18.0641 27.6556 18.0403Z" fill="black"/>
</g>
</g>
</g>
</svg>
