<svg width="25" height="24" viewBox="0 0 25 24" fill="none" xmlns="http://www.w3.org/2000/svg">
<g id="Frame">
<path id="Vector" fill-rule="evenodd" clip-rule="evenodd" d="M20.8132 9.51002C20.8132 15.036 15.7662 20.007 13.5802 21.902C13.3065 22.1425 12.9546 22.2751 12.5902 22.2751C12.2258 22.2751 11.8739 22.1425 11.6002 21.902C9.41321 20.007 4.36621 15.035 4.36621 9.51002C4.39009 7.34472 5.267 5.27622 6.80662 3.75349C8.34623 2.23076 10.4243 1.37671 12.5897 1.37671C14.7551 1.37671 16.8332 2.23076 18.3728 3.75349C19.9124 5.27622 20.7893 7.34472 20.8132 9.51002ZM15.9582 9.02602C15.9582 9.46832 15.8711 9.90628 15.7018 10.3149C15.5326 10.7235 15.2845 11.0948 14.9717 11.4076C14.659 11.7203 14.2877 11.9684 13.8791 12.1377C13.4705 12.3069 13.0325 12.394 12.5902 12.394C12.1479 12.394 11.71 12.3069 11.3013 12.1377C10.8927 11.9684 10.5214 11.7203 10.2087 11.4076C9.89593 11.0948 9.64784 10.7235 9.47858 10.3149C9.30933 9.90628 9.22221 9.46832 9.22221 9.02602C9.22221 8.13277 9.57705 7.27611 10.2087 6.64449C10.8403 6.01287 11.697 5.65802 12.5902 5.65802C13.4835 5.65802 14.3401 6.01287 14.9717 6.64449C15.6034 7.27611 15.9582 8.13277 15.9582 9.02602Z" stroke="#7B7B7B" stroke-width="1.2" stroke-linecap="round" stroke-linejoin="round"/>
</g>
</svg>
