<svg width="24" height="24" viewBox="0 0 24 24" fill="none" xmlns="http://www.w3.org/2000/svg">
<g id="Frame">
<path id="Vector" d="M12.0001 22.714C14.8417 22.714 17.5668 21.5852 19.5761 19.576C21.5853 17.5667 22.7141 14.8415 22.7141 12C22.7141 9.15848 21.5853 6.43333 19.5761 4.42407C17.5668 2.4148 14.8417 1.28601 12.0001 1.28601C9.1586 1.28601 6.43346 2.4148 4.42419 4.42407C2.41493 6.43333 1.28613 9.15848 1.28613 12C1.28613 14.8415 2.41493 17.5667 4.42419 19.576C6.43346 21.5852 9.1586 22.714 12.0001 22.714Z" stroke="#2E6A56" stroke-width="1.2" stroke-linecap="round" stroke-linejoin="round"/>
<path id="Vector_2" d="M7.71387 13.071L10.8299 16.286C12.2979 12.072 13.5179 10.224 16.2849 7.71399" stroke="#2E6A56" stroke-width="1.2" stroke-linecap="round" stroke-linejoin="round"/>
</g>
</svg>
