<svg width="20" height="15" viewBox="0 0 20 15" fill="none" xmlns="http://www.w3.org/2000/svg">
<g id="Frame">
<path id="Vector" d="M1 2.79999C0.447715 2.79999 0 3.24771 0 3.79999C0 4.35227 0.447715 4.79999 1 4.79999V2.79999ZM1 4.79999H5V2.79999H1V4.79999Z" fill="#272727"/>
<path id="Vector_2" d="M1 10.8C0.447715 10.8 0 11.2477 0 11.8C0 12.3523 0.447715 12.8 1 12.8V10.8ZM1 12.8H11V10.8H1V12.8Z" fill="#272727"/>
<path id="Vector_3" d="M10 2.79999H9V4.79999H10V2.79999ZM19 4.79999C19.5523 4.79999 20 4.35227 20 3.79999C20 3.24771 19.5523 2.79999 19 2.79999V4.79999ZM10 4.79999H19V2.79999H10V4.79999Z" fill="#272727"/>
<path id="Vector_4" d="M16 10.8H15V12.8H16V10.8ZM19 12.8C19.5523 12.8 20 12.3523 20 11.8C20 11.2477 19.5523 10.8 19 10.8V12.8ZM16 12.8H19V10.8H16V12.8Z" fill="#272727"/>
<path id="Vector_5" d="M7 5.79999C8.10457 5.79999 9 4.90456 9 3.79999C9 2.69542 8.10457 1.79999 7 1.79999C5.89543 1.79999 5 2.69542 5 3.79999C5 4.90456 5.89543 5.79999 7 5.79999Z" stroke="#272727" stroke-width="2"/>
<path id="Vector_6" d="M13 13.8C14.1046 13.8 15 12.9046 15 11.8C15 10.6954 14.1046 9.79999 13 9.79999C11.8954 9.79999 11 10.6954 11 11.8C11 12.9046 11.8954 13.8 13 13.8Z" stroke="#272727" stroke-width="2"/>
</g>
</svg>
