<svg width="18" height="19" viewBox="0 0 18 19" fill="none" xmlns="http://www.w3.org/2000/svg">
<g id="Icon">
<path id="Vector" d="M13.2012 14.4138C13.377 14.613 13.4736 14.8005 13.4912 14.9763C13.5088 15.1521 13.4473 15.322 13.3066 15.4861L12.5332 16.2595C12.3223 16.447 12.1201 16.5408 11.9268 16.5408C11.7334 16.5408 11.543 16.447 11.3555 16.2595L8.10352 13.0076C7.68164 13.2537 7.24805 13.4353 6.80273 13.5525C6.35742 13.6697 5.90039 13.7283 5.43164 13.7283C4.70508 13.7283 4.02246 13.5935 3.38379 13.324C2.74512 13.0544 2.15625 12.6501 1.61719 12.1111C1.07813 11.5603 0.673828 10.9685 0.404297 10.3357C0.134766 9.70288 0 9.01733 0 8.27905C0 7.55249 0.125977 6.87573 0.37793 6.24878C0.629883 5.62183 1.01367 5.05054 1.5293 4.53491C2.04492 4.01929 2.61328 3.63257 3.23438 3.37476C3.85547 3.11694 4.53516 2.98804 5.27344 2.98804C6 2.98804 6.68262 3.1228 7.32129 3.39233C7.95996 3.66187 8.55469 4.06616 9.10547 4.60522C9.64453 5.14429 10.0518 5.73315 10.3271 6.37183C10.6025 7.0105 10.7402 7.69312 10.7402 8.41968C10.7402 8.92358 10.6758 9.40698 10.5469 9.86987C10.418 10.3328 10.2187 10.7751 9.94922 11.197L13.2012 14.4138ZM1.59961 8.27905C1.59961 8.78296 1.69629 9.25757 1.88965 9.70288C2.08301 10.1482 2.37305 10.5642 2.75977 10.9509C3.14648 11.3494 3.5625 11.6453 4.00781 11.8386C4.45313 12.032 4.92773 12.1287 5.43164 12.1287C5.93555 12.1287 6.4043 12.0378 6.83789 11.8562C7.27148 11.6746 7.66406 11.4021 8.01562 11.0388C8.37891 10.6873 8.65137 10.2947 8.83301 9.86108C9.01465 9.42749 9.10547 8.95288 9.10547 8.43726C9.10547 7.93335 9.00879 7.45874 8.81543 7.01343C8.62207 6.56812 8.32617 6.1521 7.92773 5.76538C7.54102 5.39038 7.125 5.1062 6.67969 4.91284C6.23437 4.71948 5.76562 4.6228 5.27344 4.6228C4.76953 4.6228 4.30078 4.71362 3.86719 4.89526C3.43359 5.0769 3.03516 5.34351 2.67188 5.69507C2.32031 6.05835 2.05371 6.45679 1.87207 6.89038C1.69043 7.32397 1.59961 7.78687 1.59961 8.27905Z" fill="#0E1311"/>
</g>
</svg>
