<svg width="158" height="101" viewBox="0 0 158 101" fill="none" xmlns="http://www.w3.org/2000/svg">
<path d="M46.2983 1.10449H5.14053V42.446H46.2983V1.10449Z" stroke="white" stroke-width="1.57111"/>
<path d="M46.2983 55.1643H5.14053V96.5058H46.2983V55.1643Z" stroke="white" stroke-width="1.57111"/>
<path d="M100.119 1.10449H58.9608V42.446H100.119V1.10449Z" stroke="white" stroke-width="1.57111"/>
<path d="M100.119 55.1643H58.9608V96.5058H100.119V55.1643Z" stroke="white" stroke-width="1.57111"/>
<path d="M153.937 1.10449H112.78V42.446H153.937V1.10449Z" stroke="white" stroke-width="1.57111"/>
<path d="M153.937 55.3975H112.78V96.739H153.937V55.3975Z" stroke="white" stroke-width="1.57111"/>
<path d="M34.677 33.3346C34.4734 26.796 34.6361 16.5387 34.6361 10.0002H33.5376C33.5785 13.5147 33.619 26.8777 33.619 28.921L33.3749 28.308C33.3749 28.308 19.5018 11.8801 18.1185 10.0002H16.6539L16.8573 11.7575C16.898 16.7022 16.8573 31.0869 16.8573 32.9259H17.9558C17.9558 26.3056 17.9558 20.3392 17.9558 13.8007L17.7117 13.0243C17.7117 13.0243 32.2358 30.6782 34.677 33.3346Z" fill="white"/>
<path d="M34.3909 86.9858C33.0077 83.7573 28.6546 73.5408 25.7253 66.1445C25.3592 65.2452 24.871 63.7334 24.871 63.7334H24.5862L15.0255 86.9858C15.0255 86.9858 15.1475 86.9858 16.0426 86.9858L19.338 78.9762H28.4105C29.5089 81.6732 30.6888 84.779 31.4618 86.9858H34.3909ZM28.0036 77.9545H19.7041L23.9353 67.3293V67.7791C23.9353 67.7791 26.2136 73.4594 28.0036 77.9545Z" fill="white"/>
<path d="M93.0125 21.6056C93.0125 15.1489 88.2932 9.75464 80.9702 9.75464C73.6469 9.75464 68.8463 15.3532 68.8463 21.81C68.8463 29.2475 74.2166 33.2524 81.0107 33.2524C87.7643 33.2524 93.0125 29.0023 93.0125 21.6056ZM90.1238 21.6056C90.1238 27.6537 86.1775 32.3125 80.9702 32.2715C75.7217 32.2307 71.7349 27.8581 71.7349 21.81C71.7349 16.6201 74.5827 10.8171 80.9702 10.8171C87.3574 10.8171 90.1238 16.4157 90.1238 21.6056Z" fill="white"/>
<path d="M85.7298 86.9858C83.3703 83.2671 80.6445 79.0169 79.1799 76.2788C81.9871 75.3799 83.5331 73.2548 83.5331 70.1084C83.5331 67.0841 81.1328 64.0601 75.8438 64.0601C75.8438 64.0601 71.7752 64.0601 70.8803 64.0601C70.9617 67.5745 70.8803 84.9832 70.8803 86.9858H73.4434C73.4434 80.3656 73.4434 71.7837 73.4434 65.2452L73.6467 65.041C78.9357 64.673 81.1328 67.5338 81.1328 70.3533C81.1328 73.6225 78.6916 76.3606 74.5419 76.3606L74.2569 76.6469C75.0299 76.7693 76.0471 76.6469 76.6981 76.6469C78.4883 79.7933 81.743 85.3101 82.7601 86.9858H85.7298Z" fill="white"/>
<path d="M141.908 10.0002H140.932L132.998 29.6566V29.2071C132.998 29.2071 127.628 16.171 125.431 10.0002H122.665C123.966 13.2695 128.157 23.445 131.127 30.8417C131.493 31.7407 132.022 33.2528 132.022 33.2528H132.306L141.908 10.0002Z" fill="white"/>
<path d="M141.175 65V64.0601C140.28 64.0601 122.501 64.0601 122.501 64.0601L122.257 65C124.007 65 130.272 65 130.231 65C130.231 70.2308 130.231 84.9832 130.231 86.9858H132.754C132.754 80.4473 132.794 71.5385 132.794 65C132.794 65 139.426 65 141.175 65Z" fill="white"/>
<path d="M3.81 96.4418C5.2935 65.7738 26.9291 4.4375 101.603 4.4375C125.495 4.4375 145.23 23.9022 152.023 43.3085C161.209 69.5537 149.036 97.7276 120.518 97.7276C98.0782 97.7276 97.3285 80.1139 97.797 75.691C98.2655 71.2682 101.85 62.3641 112.437 62.1302" stroke="white" stroke-opacity="0.4" stroke-width="1.12222"/>
</svg>
