<svg width="70" height="45" viewBox="0 0 70 45" fill="none" xmlns="http://www.w3.org/2000/svg">
<g id="Group 22novartlogo 1">
<path id="Vector" d="M20.3308 0.492188H1.99316V18.9117H20.3308V0.492188Z" stroke="#fff" stroke-width="0.7"/>
<path id="Vector_2" d="M20.3308 24.578H1.99316V42.9975H20.3308V24.578Z" stroke="#fff" stroke-width="0.7"/>
<path id="Vector_3" d="M44.3103 0.492188H25.9727V18.9117H44.3103V0.492188Z" stroke="#fff" stroke-width="0.7"/>
<path id="Vector_4" d="M44.3103 24.578H25.9727V42.9975H44.3103V24.578Z" stroke="#fff" stroke-width="0.7"/>
<path id="Vector_5" d="M68.2885 0.492188H49.9509V18.9117H68.2885V0.492188Z" stroke="#fff" stroke-width="0.7"/>
<path id="Vector_6" d="M68.2885 24.6821H49.9509V43.1016H68.2885V24.6821Z" stroke="#fff" stroke-width="0.7"/>
<path id="Vector_7" d="M15.1529 14.8521C15.0622 11.9389 15.1347 7.3688 15.1347 4.45561H14.6453C14.6635 6.02146 14.6815 11.9753 14.6815 12.8857L14.5727 12.6125C14.5727 12.6125 8.39166 5.29316 7.77536 4.45561H7.1228L7.21344 5.23854C7.23157 7.44163 7.21344 13.8506 7.21344 14.67H7.70285C7.70285 11.7204 7.70285 9.06209 7.70285 6.14891L7.5941 5.80297C7.5941 5.80297 14.0652 13.6686 15.1529 14.8521Z" fill="#fff"/>
<path id="Vector_8" d="M15.0256 38.7558C14.4094 37.3174 12.4698 32.7655 11.1647 29.4701C11.0016 29.0694 10.7841 28.3958 10.7841 28.3958H10.6572L6.39746 38.7558C6.39746 38.7558 6.45185 38.7558 6.85063 38.7558L8.31888 35.1872H12.3611C12.8505 36.3888 13.3762 37.7726 13.7206 38.7558H15.0256ZM12.1798 34.732H8.48202L10.3672 29.998V30.1984C10.3672 30.1984 11.3823 32.7292 12.1798 34.732Z" fill="#fff"/>
<path id="Vector_9" d="M41.1441 9.62652C41.1441 6.74975 39.0414 4.34637 35.7787 4.34637C32.5159 4.34637 30.377 6.84079 30.377 9.71756C30.377 13.0313 32.7697 14.8157 35.7968 14.8157C38.8058 14.8157 41.1441 12.9221 41.1441 9.62652ZM39.8571 9.62652C39.8571 12.3212 38.0988 14.3969 35.7787 14.3786C33.4403 14.3605 31.664 12.4123 31.664 9.71756C31.664 7.40522 32.9328 4.81976 35.7787 4.81976C38.6245 4.81976 39.8571 7.31418 39.8571 9.62652Z" fill="#fff"/>
<path id="Vector_10" d="M37.8993 38.7558C36.8481 37.099 35.6336 35.2053 34.981 33.9854C36.2318 33.5849 36.9206 32.6381 36.9206 31.2362C36.9206 29.8887 35.8511 28.5414 33.4946 28.5414C33.4946 28.5414 31.6819 28.5414 31.2832 28.5414C31.3195 30.1073 31.2832 37.8636 31.2832 38.7558H32.4252C32.4252 35.8062 32.4252 31.9826 32.4252 29.0694L32.5158 28.9785C34.8722 28.8145 35.8511 30.0891 35.8511 31.3453C35.8511 32.8019 34.7635 34.0218 32.9146 34.0218L32.7876 34.1494C33.132 34.2039 33.5852 34.1494 33.8753 34.1494C34.6729 35.5513 36.123 38.0093 36.5762 38.7558H37.8993Z" fill="#fff"/>
<path id="Vector_11" d="M62.9291 4.45561H62.494L58.9594 13.2134V13.0131C58.9594 13.0131 56.5667 7.20494 55.5878 4.45561H54.3552C54.9352 5.91221 56.8023 10.4459 58.1256 13.7414C58.2887 14.1419 58.5243 14.8157 58.5243 14.8157H58.6511L62.9291 4.45561Z" fill="#fff"/>
<path id="Vector_12" d="M62.6029 28.9602V28.5414C62.2042 28.5414 54.2828 28.5414 54.2828 28.5414L54.1741 28.9602C54.9536 28.9602 57.745 28.9602 57.7268 28.9602C57.7268 31.2908 57.7268 37.8636 57.7268 38.7558H58.8508C58.8508 35.8426 58.8688 31.8734 58.8688 28.9602C58.8688 28.9602 61.8235 28.9602 62.6029 28.9602Z" fill="#fff"/>
<path id="Vector_13" d="M1.40039 42.9688C2.06136 29.3048 11.701 1.97681 44.9717 1.97681C55.6166 1.97681 64.4092 10.6492 67.4357 19.2956C71.5288 30.989 66.1052 43.5417 53.399 43.5417C43.4011 43.5417 43.067 35.694 43.2758 33.7234C43.4845 31.7528 45.0814 27.7857 49.7985 27.6815" stroke="#fff" stroke-opacity="0.4" stroke-width="0.5"/>
</g>
</svg>
