<svg width="38" height="24" viewBox="0 0 38 24" fill="none" xmlns="http://www.w3.org/2000/svg">
<g id="Frame">
<path id="Vector" opacity="0.07" d="M35 0H3C1.3 0 0 1.3 0 3V21C0 22.7 1.4 24 3 24H35C36.7 24 38 22.7 38 21V3C38 1.3 36.6 0 35 0Z" fill="black"/>
<path id="Vector_2" d="M35 1C36.1 1 37 1.9 37 3V21C37 22.1 36.1 23 35 23H3C1.9 23 1 22.1 1 21V3C1 1.9 1.9 1 3 1H35Z" fill="white"/>
<path id="Vector_3" d="M23.9 8.3C24.1 7.3 23.9 6.6 23.3 6C22.7 5.3 21.6 5 20.2 5H16.1C15.8 5 15.6 5.2 15.5 5.5L14 15.6C14 15.8 14.1 16 14.3 16H17L17.4 12.6L19.2 10.4L23.9 8.3Z" fill="#003087"/>
<path id="Vector_4" d="M23.8996 8.2998L23.6996 8.4998C23.1996 11.2998 21.4996 12.2998 19.0996 12.2998H17.9996C17.6996 12.2998 17.4996 12.4998 17.3996 12.7998L16.7996 16.6998L16.5996 17.6998C16.5996 17.8998 16.6996 18.0998 16.8996 18.0998H18.9996C19.2996 18.0998 19.4996 17.8998 19.4996 17.6998V17.5998L19.8996 15.1998V15.0998C19.8996 14.8998 20.1996 14.6998 20.3996 14.6998H20.6996C22.7996 14.6998 24.3996 13.8998 24.7996 11.4998C24.9996 10.4998 24.8996 9.6998 24.3996 9.0998C24.2996 8.5998 24.0996 8.3998 23.8996 8.2998Z" fill="#3086C8"/>
<path id="Vector_5" d="M23.3004 8.0998C23.2004 7.9998 23.1004 7.9998 23.0004 7.9998C22.9004 7.9998 22.8004 7.9998 22.7004 7.8998C22.4004 7.7998 22.0004 7.7998 21.6004 7.7998H18.6004C18.5004 7.7998 18.4004 7.7998 18.4004 7.8998C18.2004 7.9998 18.1004 8.0998 18.1004 8.2998L17.4004 12.6998V12.7998C17.4004 12.4998 17.7004 12.2998 18.0004 12.2998H19.3004C21.8004 12.2998 23.4004 11.2998 23.9004 8.4998V8.2998C23.8004 8.1998 23.6004 8.0998 23.4004 8.0998H23.3004Z" fill="#012169"/>
</g>
</svg>
