<svg width="24" height="24" viewBox="0 0 24 24" fill="none" xmlns="http://www.w3.org/2000/svg">
<g id="Frame">
<path id="Vector" d="M22.7145 12.375V6.62397C22.7145 6.16939 22.5339 5.73343 22.2125 5.41199C21.891 5.09056 21.4551 4.90997 21.0005 4.90997H9.69647C9.47121 4.90971 9.24812 4.95385 9.03994 5.03987C8.83175 5.12589 8.64257 5.2521 8.48319 5.41129C8.32382 5.57047 8.19739 5.75951 8.11113 5.96759C8.02487 6.17568 7.98047 6.39872 7.98047 6.62397V8.73297" stroke="#7B7B7B" stroke-width="1.2" stroke-linecap="round" stroke-linejoin="round"/>
<path id="Vector_2" d="M12.8914 1.28601L15.3484 4.91101L17.8024 1.28601M11.1174 17.633L10.9114 15.461C10.8443 14.7563 10.5608 14.0897 10.0998 13.5525C9.63875 13.0154 9.02278 12.6341 8.33641 12.461L6.73641 12.057C5.36587 11.7115 3.95015 11.5799 2.53941 11.667L1.31641 11.743V19.114L6.74941 21.646C8.12759 22.2882 9.62339 22.6393 11.1434 22.6773C12.6633 22.7153 14.1748 22.4395 15.5834 21.867L21.1234 19.617C21.5475 19.4432 21.8905 19.1159 22.0841 18.7006C22.2778 18.2852 22.3079 17.8121 22.1684 17.3755C22.0289 16.9389 21.7301 16.5709 21.3315 16.3447C20.9329 16.1186 20.4637 16.0508 20.0174 16.155L12.6394 17.907L6.78741 16.851" stroke="#7B7B7B" stroke-width="1.2" stroke-linecap="round" stroke-linejoin="round"/>
<path id="Vector_3" d="M15.3477 4.91101V13.606" stroke="#7B7B7B" stroke-width="1.2" stroke-linecap="round"/>
</g>
</svg>
