<svg width="38" height="24" viewBox="0 0 38 24" fill="none" xmlns="http://www.w3.org/2000/svg">
<g id="Frame">
<path id="Vector" d="M17.7 0V24H10.5C9.2 24 8.4 23 8.7 21.7L13.1 2.3C13.4 0.999999 15 0 16.3 0H17.7ZM30.3 0C29 0 27.4 0.999999 27.1 2.3L22.6 21.7C22.3 23 23.1 24 24.4 24H19.5V0H30.3Z" fill="#005B9A"/>
<path id="Vector_2" d="M16.2996 0C14.9996 0 13.3996 1.1 13.0996 2.3L8.69961 21.7C8.39961 23 9.19961 24 10.4996 24H1.59961C0.799609 24 0.0996094 23.4 0.0996094 22.6V1.6C0.0996094 0.8 0.799609 0 1.59961 0H16.2996Z" fill="#E9292D"/>
<path id="Vector_3" d="M30.2997 0C28.9997 0 27.3997 1.1 27.0997 2.3L22.6997 21.7C22.3997 23 23.1997 24 24.4997 24H9.99969H10.4997C9.19969 24 8.3997 23 8.6997 21.7L13.0997 2.3C13.3997 0.999999 14.9997 0 16.2997 0H30.2997Z" fill="#0E73B9"/>
<path id="Vector_4" d="M38 1.6V22.6C38 23.4 37.4 24 36.5 24H24.4C23.1 24 22.3 22.9 22.6 21.7L27.1 2.3C27.4 0.999999 29 0 30.3 0H36.5C37.4 0 38 0.7 38 1.6Z" fill="#059DA4"/>
<path id="Vector_5" d="M14.878 13.6449H15.018C15.158 13.6449 15.298 13.5749 15.298 13.5049L15.718 12.8749H16.908L16.698 13.2249H18.098L17.888 13.8549H16.208C15.998 14.1349 15.788 14.2749 15.508 14.2749H14.668L14.878 13.6449ZM14.668 14.5549H17.678L17.468 15.2549H16.278L16.068 15.9549H17.258L17.048 16.6549H15.858L15.578 17.7049C15.508 17.8449 15.578 17.9849 15.858 17.9149H16.838L16.628 18.6149H14.738C14.388 18.6149 14.248 18.4049 14.388 17.9849L14.738 16.6549H13.968L14.178 15.9549H14.948L15.158 15.2549H14.458L14.668 14.5549ZM19.498 12.8049V13.2249C19.498 13.2249 20.058 12.8049 20.618 12.8049H22.578L21.808 15.4649C21.738 15.7449 21.458 15.9549 21.038 15.9549H18.798L18.308 17.8449C18.308 17.9149 18.308 17.9849 18.448 17.9849H18.868L18.728 18.5449H17.608C17.188 18.5449 17.048 18.4049 17.118 18.1949L18.588 12.8049H19.498ZM21.178 13.5749H19.428L19.218 14.2749C19.218 14.2749 19.498 14.0649 19.988 14.0649H21.038L21.178 13.5749ZM20.548 15.2549C20.688 15.2549 20.758 15.2549 20.758 15.1149L20.898 14.7649H19.148L19.008 15.3249L20.548 15.2549ZM19.358 16.0949H20.338V16.5149H20.618C20.758 16.5149 20.828 16.4449 20.828 16.3749L20.898 16.0949H21.738L21.598 16.5849C21.528 16.9349 21.248 17.0749 20.828 17.1449H20.268V17.9149C20.268 18.0549 20.338 18.1249 20.618 18.1249H21.108L20.968 18.6849H19.778C19.428 18.6849 19.288 18.5449 19.288 18.1949L19.358 16.0949ZM23.558 13.6449L23.768 12.8049H24.958L24.888 13.0849C24.888 13.0849 25.448 12.8049 25.938 12.8049H27.408L27.198 13.6449H26.988L25.868 17.4949H26.078L25.868 18.2649H25.658L25.588 18.6149H24.398L24.468 18.2649H22.298L22.508 17.4949H22.718L23.838 13.6449H23.558ZM24.818 13.6449L24.538 14.6949C24.538 14.6949 25.028 14.4849 25.448 14.4149C25.518 14.0649 25.658 13.6449 25.658 13.6449H24.818ZM24.328 15.1849L24.048 16.3049C24.048 16.3049 24.608 16.0249 25.028 16.0249C25.168 15.6049 25.238 15.2549 25.238 15.2549L24.328 15.1849ZM24.538 17.4949L24.748 16.7249H23.908L23.698 17.4949H24.538ZM27.408 12.8049H28.528L28.598 13.2249C28.598 13.2949 28.668 13.3649 28.808 13.3649H29.018L28.808 14.0649H28.038C27.758 14.0649 27.548 13.9949 27.548 13.7149L27.408 12.8049ZM27.058 14.2749H30.628L30.418 15.0449H29.228L29.018 15.7449H30.138L29.928 16.5149H28.668L28.388 16.9349H29.018L29.158 17.7749C29.158 17.8449 29.228 17.9149 29.368 17.9149H29.578L29.368 18.6149H28.668C28.318 18.6149 28.108 18.5449 28.108 18.2649L27.968 17.4949L27.408 18.3349C27.268 18.5449 27.058 18.6849 26.778 18.6849H25.728L25.938 17.9849H26.288C26.428 17.9849 26.498 17.9149 26.638 17.7749L27.478 16.5149H26.428L26.638 15.7449H27.828L28.038 15.0449H26.848L27.058 14.2749ZM7.31799 9.23494C7.17799 9.93494 6.89799 10.4249 6.40799 10.7749C5.91799 11.1249 5.28799 11.3349 4.51799 11.3349C3.81799 11.3349 3.25799 11.1249 2.97799 10.7749C2.76799 10.4949 2.62799 10.2149 2.62799 9.79494C2.62799 9.65494 2.62799 9.44494 2.69799 9.23494L3.53799 5.31494H4.72799L3.95799 9.23494V9.51494C3.95799 9.72494 4.02799 9.86494 4.09799 10.0049C4.23799 10.2149 4.44799 10.2849 4.79799 10.2849C5.14799 10.2849 5.49799 10.2149 5.70799 10.0049C5.91799 9.79494 6.12799 9.58494 6.19799 9.23494L6.96799 5.31494H8.15799L7.31799 9.23494ZM8.43799 7.69494H9.27799L9.20799 8.18494L9.34799 8.04494C9.62799 7.76494 9.97799 7.62494 10.398 7.62494C10.748 7.62494 11.028 7.76494 11.168 7.97494C11.308 8.18494 11.378 8.46494 11.308 8.88494L10.818 11.2649H9.90799L10.328 9.09494C10.398 8.81494 10.398 8.60494 10.328 8.53494C10.258 8.39494 10.118 8.39494 9.97799 8.39494C9.76799 8.39494 9.55799 8.46494 9.41799 8.60494C9.27799 8.74494 9.13799 8.95494 9.13799 9.23494L8.71799 11.2649H7.80799L8.43799 7.69494ZM18.238 7.69494H19.078L19.008 8.18494L19.148 8.04494C19.428 7.76494 19.778 7.62494 20.198 7.62494C20.548 7.62494 20.828 7.76494 20.968 7.97494C21.108 8.18494 21.178 8.46494 21.108 8.88494L20.618 11.2649H19.708L20.128 9.02494C20.198 8.81494 20.128 8.60494 20.058 8.53494C19.988 8.39494 19.848 8.39494 19.708 8.39494C19.498 8.39494 19.288 8.46494 19.148 8.60494C19.008 8.74494 18.868 8.95494 18.868 9.23494L18.448 11.2649H17.538L18.238 7.69494ZM12.428 7.69494H13.408L12.638 11.1949H11.658L12.428 7.69494ZM12.778 6.36494H13.758L13.548 7.20494H12.568L12.778 6.36494ZM14.178 10.9149C13.968 10.7049 13.828 10.3549 13.828 9.93494V9.72494C13.828 9.65494 13.828 9.51494 13.898 9.44494C14.038 8.88494 14.248 8.39494 14.598 8.11494C14.948 7.76494 15.438 7.62494 15.928 7.62494C16.348 7.62494 16.698 7.76494 16.978 7.97494C17.188 8.18494 17.328 8.53494 17.328 8.95494V9.16494C17.328 9.23494 17.328 9.37494 17.258 9.44494C17.118 10.0049 16.908 10.4249 16.558 10.7749C16.208 11.1249 15.718 11.2649 15.228 11.2649C14.878 11.2649 14.528 11.1249 14.178 10.9149ZM16.068 10.2149C16.208 10.0049 16.348 9.72494 16.418 9.37494V9.02494C16.418 8.81494 16.348 8.67494 16.278 8.53494C16.2164 8.46651 16.1407 8.41229 16.0561 8.37603C15.9715 8.33977 15.88 8.32234 15.788 8.32494C15.508 8.32494 15.298 8.39494 15.158 8.60494C15.018 8.81494 14.878 9.09494 14.808 9.44494V9.72494C14.808 9.93494 14.878 10.0749 14.948 10.2149C15.088 10.3549 15.228 10.4249 15.438 10.4249C15.718 10.4949 15.858 10.4249 16.068 10.2149ZM22.578 5.52494H25.098C25.588 5.52494 25.938 5.66494 26.218 5.87494C26.498 6.08494 26.568 6.43494 26.568 6.78494V7.06494C26.568 7.13494 26.568 7.27494 26.498 7.34494C26.428 7.83494 26.148 8.32494 25.798 8.60494C25.378 8.95494 24.958 9.09494 24.398 9.09494H22.998L22.578 11.1249H21.388L22.578 5.52494ZM23.138 8.11494H24.258C24.538 8.11494 24.748 8.04494 24.958 7.90494C25.098 7.76494 25.238 7.55494 25.308 7.27494V6.99494C25.308 6.78494 25.238 6.64494 25.098 6.57494C24.958 6.50494 24.748 6.43494 24.398 6.43494H23.488L23.138 8.11494ZM31.818 11.8249C31.468 12.5949 31.118 13.0849 30.908 13.2949C30.698 13.5049 30.278 13.9949 29.298 13.9949L29.368 13.3649C30.208 13.0849 30.628 11.9649 30.908 11.4049L30.628 7.62494H31.818L31.888 10.0049L32.798 7.69494H33.848L31.818 11.8249ZM28.878 7.97494L28.458 8.25494C28.038 7.90494 27.618 7.69494 26.918 8.04494C25.938 8.53494 25.028 12.1749 27.828 10.9849L27.968 11.1949H29.088L29.788 7.90494L28.878 7.97494ZM28.318 9.79494C28.108 10.3549 27.758 10.6349 27.408 10.5649C27.128 10.4249 27.058 9.93494 27.198 9.37494C27.408 8.81494 27.758 8.53494 28.108 8.60494C28.388 8.74494 28.458 9.23494 28.318 9.79494Z" fill="white"/>
</g>
</svg>
