<svg width="20" height="21" viewBox="0 0 20 21" fill="none" xmlns="http://www.w3.org/2000/svg">
<g id="Icon">
<path id="Vector" d="M12.7344 8.95337L9.17969 13.4846C8.90625 13.8362 8.54492 14.0445 8.0957 14.1096C7.64648 14.1747 7.23958 14.0771 6.875 13.8167C6.84896 13.7906 6.81966 13.7646 6.78711 13.7385C6.75456 13.7125 6.72526 13.6864 6.69922 13.6604L4.55078 11.6292C4.35547 11.4338 4.25456 11.1995 4.24805 10.926C4.24154 10.6526 4.33594 10.4182 4.53125 10.2229C4.71354 10.0146 4.94141 9.90715 5.21484 9.90063C5.48828 9.89412 5.72917 9.98853 5.9375 10.1838L7.83203 11.9807L11.1719 7.7229C11.3411 7.50155 11.5625 7.37459 11.8359 7.34204C12.1094 7.30949 12.3568 7.37785 12.5781 7.54712C12.7865 7.71639 12.9069 7.93774 12.9395 8.21118C12.972 8.48462 12.9036 8.73201 12.7344 8.95337ZM16.1719 10.3401C16.1849 9.74113 16.0189 9.19425 15.6738 8.69946C15.3288 8.20467 14.8698 7.85962 14.2969 7.66431C14.5703 7.13045 14.6615 6.56405 14.5703 5.96509C14.4792 5.36613 14.2253 4.8453 13.8086 4.40259C13.4049 3.9729 12.9102 3.71248 12.3242 3.62134C11.7383 3.53019 11.1849 3.62134 10.6641 3.89478C10.4948 3.32186 10.1725 2.85311 9.69726 2.48853C9.222 2.12394 8.68489 1.94165 8.08594 1.94165C7.48698 1.94165 6.94987 2.12394 6.47461 2.48853C5.99935 2.85311 5.67708 3.32186 5.50781 3.89478C4.98698 3.62134 4.43359 3.53019 3.84766 3.62134C3.26172 3.71248 2.76693 3.9729 2.36328 4.40259C1.94661 4.8453 1.69271 5.36613 1.60156 5.96509C1.51042 6.56405 1.60156 7.13045 1.875 7.66431C1.3151 7.87264 0.86263 8.22095 0.517578 8.70923C0.172526 9.19751 0 9.74113 0 10.3401C0 10.939 0.172526 11.4827 0.517578 11.9709C0.86263 12.4592 1.3151 12.8075 1.875 13.0159C1.60156 13.5497 1.51042 14.1161 1.60156 14.7151C1.69271 15.314 1.94661 15.8349 2.36328 16.2776C2.76693 16.7073 3.26172 16.9677 3.84766 17.0588C4.43359 17.15 4.98698 17.0588 5.50781 16.7854C5.67708 17.3583 5.99935 17.8271 6.47461 18.1917C6.94987 18.5562 7.48698 18.7385 8.08594 18.7385C8.68489 18.7385 9.222 18.5562 9.69726 18.1917C10.1725 17.8271 10.4948 17.3583 10.6641 16.7854C11.1849 17.0588 11.7383 17.15 12.3242 17.0588C12.9102 16.9677 13.4049 16.7073 13.8086 16.2776C14.2253 15.8349 14.4792 15.314 14.5703 14.7151C14.6615 14.1161 14.5703 13.5497 14.2969 13.0159C14.8698 12.8206 15.3288 12.4755 15.6738 11.9807C16.0189 11.4859 16.1849 10.939 16.1719 10.3401Z" fill="#2E6A56"/>
</g>
</svg>
